<mxfile host="app.diagrams.net" modified="2024-02-10T22:22:23.752Z" agent="Mozilla/5.0 (Macintosh; Intel Mac OS X 10_15_7) AppleWebKit/537.36 (KHTML, like Gecko) Chrome/116.0.0.0 Safari/537.36" etag="_o5_0xg-tVnaRTnyndO5" version="23.0.1" type="github">
  <diagram name="Page-1" id="fAJuUNWQ6-a-Cqjv2Dio">
    <mxGraphModel dx="2418" dy="1071" grid="1" gridSize="10" guides="1" tooltips="1" connect="1" arrows="1" fold="1" page="1" pageScale="1" pageWidth="827" pageHeight="1169" math="0" shadow="0">
      <root>
        <mxCell id="0" />
        <mxCell id="1" parent="0" />
        <mxCell id="Kf7Oni3cejaSNOLy2I3y-27" value="" style="shape=ext;double=1;rounded=1;whiteSpace=wrap;html=1;" vertex="1" parent="1">
          <mxGeometry x="40" y="550" width="725" height="500" as="geometry" />
        </mxCell>
        <mxCell id="Kf7Oni3cejaSNOLy2I3y-28" value="&lt;b&gt;Service Host&lt;/b&gt;" style="text;html=1;align=center;verticalAlign=middle;resizable=0;points=[];autosize=1;strokeColor=none;fillColor=none;" vertex="1" parent="1">
          <mxGeometry x="364" y="518" width="100" height="30" as="geometry" />
        </mxCell>
        <mxCell id="Kf7Oni3cejaSNOLy2I3y-29" value="Rule DB" style="strokeWidth=2;html=1;shape=mxgraph.flowchart.database;whiteSpace=wrap;fillColor=#dae8fc;strokeColor=#6c8ebf;" vertex="1" parent="1">
          <mxGeometry x="930" y="605" width="90" height="80" as="geometry" />
        </mxCell>
        <mxCell id="Kf7Oni3cejaSNOLy2I3y-30" value="Rule Service" style="rounded=1;whiteSpace=wrap;html=1;fillColor=#dae8fc;strokeColor=#6c8ebf;" vertex="1" parent="1">
          <mxGeometry x="810" y="612.5" width="70" height="65" as="geometry" />
        </mxCell>
        <mxCell id="Kf7Oni3cejaSNOLy2I3y-32" value="&lt;b&gt;Rule retriever&lt;/b&gt;" style="rounded=1;whiteSpace=wrap;html=1;fillColor=#ffe6cc;strokeColor=#d79b00;" vertex="1" parent="1">
          <mxGeometry x="620" y="600" width="100" height="90" as="geometry" />
        </mxCell>
        <mxCell id="Kf7Oni3cejaSNOLy2I3y-34" value="Throttle Rules cache" style="sketch=0;outlineConnect=0;strokeColor=#6c8ebf;fillColor=#dae8fc;dashed=0;verticalLabelPosition=bottom;verticalAlign=top;align=center;html=1;fontSize=12;fontStyle=0;aspect=fixed;shape=mxgraph.aws4.resourceIcon;resIcon=mxgraph.aws4.cache_node;" vertex="1" parent="1">
          <mxGeometry x="464" y="610" width="60" height="60" as="geometry" />
        </mxCell>
        <mxCell id="Kf7Oni3cejaSNOLy2I3y-36" value="" style="endArrow=none;dashed=1;html=1;dashPattern=1 3;strokeWidth=3;rounded=0;entryX=0;entryY=0.5;entryDx=0;entryDy=0;fillColor=#60a917;strokeColor=#2D7600;" edge="1" parent="1" source="Kf7Oni3cejaSNOLy2I3y-34" target="Kf7Oni3cejaSNOLy2I3y-32">
          <mxGeometry width="50" height="50" relative="1" as="geometry">
            <mxPoint x="550" y="677" as="sourcePoint" />
            <mxPoint x="620" y="677" as="targetPoint" />
          </mxGeometry>
        </mxCell>
        <mxCell id="Kf7Oni3cejaSNOLy2I3y-38" value="" style="endArrow=classic;html=1;rounded=0;entryX=0;entryY=0.5;entryDx=0;entryDy=0;fillColor=#60a917;strokeColor=#2D7600;" edge="1" parent="1" target="Kf7Oni3cejaSNOLy2I3y-37">
          <mxGeometry width="50" height="50" relative="1" as="geometry">
            <mxPoint x="-90" y="780" as="sourcePoint" />
            <mxPoint x="440" y="660" as="targetPoint" />
          </mxGeometry>
        </mxCell>
        <mxCell id="Kf7Oni3cejaSNOLy2I3y-39" value="&lt;b&gt;Request&lt;/b&gt;" style="edgeLabel;html=1;align=center;verticalAlign=middle;resizable=0;points=[];" vertex="1" connectable="0" parent="Kf7Oni3cejaSNOLy2I3y-38">
          <mxGeometry x="-0.219" y="-1" relative="1" as="geometry">
            <mxPoint as="offset" />
          </mxGeometry>
        </mxCell>
        <mxCell id="Kf7Oni3cejaSNOLy2I3y-48" value="" style="edgeStyle=orthogonalEdgeStyle;rounded=0;orthogonalLoop=1;jettySize=auto;html=1;" edge="1" parent="1" source="Kf7Oni3cejaSNOLy2I3y-40" target="Kf7Oni3cejaSNOLy2I3y-47">
          <mxGeometry relative="1" as="geometry" />
        </mxCell>
        <mxCell id="Kf7Oni3cejaSNOLy2I3y-49" value="&lt;b&gt;&lt;font color=&quot;#00cc00&quot;&gt;Allow&lt;/font&gt;&lt;/b&gt;" style="edgeLabel;html=1;align=center;verticalAlign=middle;resizable=0;points=[];" vertex="1" connectable="0" parent="Kf7Oni3cejaSNOLy2I3y-48">
          <mxGeometry x="-0.2" y="1" relative="1" as="geometry">
            <mxPoint as="offset" />
          </mxGeometry>
        </mxCell>
        <mxCell id="Kf7Oni3cejaSNOLy2I3y-40" value="Rate Limiter" style="rounded=1;whiteSpace=wrap;html=1;fillColor=#ffe6cc;strokeColor=#d79b00;" vertex="1" parent="1">
          <mxGeometry x="300" y="735" width="110" height="90" as="geometry" />
        </mxCell>
        <mxCell id="Kf7Oni3cejaSNOLy2I3y-41" value="" style="endArrow=none;dashed=1;html=1;dashPattern=1 3;strokeWidth=3;rounded=0;exitX=1;exitY=0.5;exitDx=0;exitDy=0;entryX=0;entryY=0.5;entryDx=0;entryDy=0;fillColor=#60a917;strokeColor=#2D7600;" edge="1" parent="1" source="Kf7Oni3cejaSNOLy2I3y-37" target="Kf7Oni3cejaSNOLy2I3y-40">
          <mxGeometry width="50" height="50" relative="1" as="geometry">
            <mxPoint x="390" y="710" as="sourcePoint" />
            <mxPoint x="440" y="660" as="targetPoint" />
          </mxGeometry>
        </mxCell>
        <mxCell id="Kf7Oni3cejaSNOLy2I3y-42" value="" style="endArrow=none;dashed=1;html=1;dashPattern=1 3;strokeWidth=3;rounded=0;exitX=0.5;exitY=0;exitDx=0;exitDy=0;fillColor=#60a917;strokeColor=#2D7600;" edge="1" parent="1" source="Kf7Oni3cejaSNOLy2I3y-40" target="Kf7Oni3cejaSNOLy2I3y-34">
          <mxGeometry width="50" height="50" relative="1" as="geometry">
            <mxPoint x="390" y="710" as="sourcePoint" />
            <mxPoint x="440" y="660" as="targetPoint" />
          </mxGeometry>
        </mxCell>
        <mxCell id="Kf7Oni3cejaSNOLy2I3y-43" value="" style="endArrow=none;dashed=1;html=1;dashPattern=1 3;strokeWidth=3;rounded=0;entryX=0;entryY=0.5;entryDx=0;entryDy=0;fillColor=#60a917;strokeColor=#2D7600;exitX=1;exitY=0.5;exitDx=0;exitDy=0;" edge="1" parent="1" source="Kf7Oni3cejaSNOLy2I3y-32" target="Kf7Oni3cejaSNOLy2I3y-30">
          <mxGeometry width="50" height="50" relative="1" as="geometry">
            <mxPoint x="534" y="689" as="sourcePoint" />
            <mxPoint x="630" y="687" as="targetPoint" />
          </mxGeometry>
        </mxCell>
        <mxCell id="Kf7Oni3cejaSNOLy2I3y-44" value="" style="endArrow=none;dashed=1;html=1;dashPattern=1 3;strokeWidth=3;rounded=0;entryX=0;entryY=0.5;entryDx=0;entryDy=0;fillColor=#60a917;strokeColor=#2D7600;exitX=1;exitY=0.5;exitDx=0;exitDy=0;entryPerimeter=0;" edge="1" parent="1" source="Kf7Oni3cejaSNOLy2I3y-30" target="Kf7Oni3cejaSNOLy2I3y-29">
          <mxGeometry width="50" height="50" relative="1" as="geometry">
            <mxPoint x="730" y="688" as="sourcePoint" />
            <mxPoint x="810" y="688" as="targetPoint" />
          </mxGeometry>
        </mxCell>
        <mxCell id="Kf7Oni3cejaSNOLy2I3y-46" value="" style="group;" vertex="1" connectable="0" parent="1">
          <mxGeometry x="40" y="682.5" width="280" height="137.5" as="geometry" />
        </mxCell>
        <mxCell id="Kf7Oni3cejaSNOLy2I3y-37" value="Client Identifier Builder" style="rounded=1;whiteSpace=wrap;html=1;fillColor=#d5e8d4;strokeColor=#82b366;" vertex="1" parent="Kf7Oni3cejaSNOLy2I3y-46">
          <mxGeometry x="80" y="57.5" width="110" height="80" as="geometry" />
        </mxCell>
        <mxCell id="Kf7Oni3cejaSNOLy2I3y-45" value="&lt;b&gt;Client Identifier&lt;br&gt;Client_id, request IP address or combination&lt;br&gt;Can be merged into rate limiter&lt;br&gt;seperate component stress the importance&lt;br&gt;&lt;/b&gt;" style="text;html=1;align=center;verticalAlign=middle;resizable=0;points=[];autosize=1;strokeColor=none;fillColor=none;" vertex="1" parent="Kf7Oni3cejaSNOLy2I3y-46">
          <mxGeometry y="-15" width="280" height="70" as="geometry" />
        </mxCell>
        <mxCell id="Kf7Oni3cejaSNOLy2I3y-47" value="Request Processor" style="rounded=1;whiteSpace=wrap;html=1;fillColor=#d5e8d4;strokeColor=#82b366;" vertex="1" parent="1">
          <mxGeometry x="570" y="735" width="110" height="90" as="geometry" />
        </mxCell>
        <mxCell id="Kf7Oni3cejaSNOLy2I3y-53" value="503 Service unavailable" style="text;html=1;align=center;verticalAlign=middle;resizable=0;points=[];autosize=1;strokeColor=none;fillColor=none;" vertex="1" parent="1">
          <mxGeometry x="-145" y="818" width="150" height="30" as="geometry" />
        </mxCell>
        <mxCell id="Kf7Oni3cejaSNOLy2I3y-54" value="&lt;b&gt;&lt;font color=&quot;#ff0000&quot;&gt;Rejected&lt;/font&gt;&lt;/b&gt;" style="text;html=1;align=center;verticalAlign=middle;resizable=0;points=[];autosize=1;strokeColor=none;fillColor=none;" vertex="1" parent="1">
          <mxGeometry x="320" y="900" width="70" height="30" as="geometry" />
        </mxCell>
        <mxCell id="Kf7Oni3cejaSNOLy2I3y-55" value="" style="endArrow=none;dashed=1;html=1;dashPattern=1 3;strokeWidth=3;rounded=0;exitX=0.5;exitY=1;exitDx=0;exitDy=0;fillColor=#e51400;strokeColor=#B20000;" edge="1" parent="1" source="Kf7Oni3cejaSNOLy2I3y-40" target="Kf7Oni3cejaSNOLy2I3y-54">
          <mxGeometry width="50" height="50" relative="1" as="geometry">
            <mxPoint x="390" y="710" as="sourcePoint" />
            <mxPoint x="440" y="660" as="targetPoint" />
          </mxGeometry>
        </mxCell>
        <mxCell id="Kf7Oni3cejaSNOLy2I3y-56" value="" style="endArrow=classic;html=1;rounded=0;exitX=-0.057;exitY=0.567;exitDx=0;exitDy=0;exitPerimeter=0;fillColor=#e51400;strokeColor=#B20000;" edge="1" parent="1" source="Kf7Oni3cejaSNOLy2I3y-54">
          <mxGeometry width="50" height="50" relative="1" as="geometry">
            <mxPoint x="390" y="710" as="sourcePoint" />
            <mxPoint x="-120" y="920" as="targetPoint" />
          </mxGeometry>
        </mxCell>
        <mxCell id="Kf7Oni3cejaSNOLy2I3y-57" value="503 Service unavailable" style="text;html=1;align=center;verticalAlign=middle;resizable=0;points=[];autosize=1;strokeColor=none;fillColor=none;" vertex="1" parent="1">
          <mxGeometry x="-110" y="890" width="150" height="30" as="geometry" />
        </mxCell>
        <mxCell id="Kf7Oni3cejaSNOLy2I3y-58" value="429 Too many requests" style="text;html=1;align=center;verticalAlign=middle;resizable=0;points=[];autosize=1;strokeColor=none;fillColor=none;" vertex="1" parent="1">
          <mxGeometry x="-110" y="920" width="150" height="30" as="geometry" />
        </mxCell>
        <mxCell id="Kf7Oni3cejaSNOLy2I3y-59" value="Queue" style="sketch=0;outlineConnect=0;fontColor=#232F3E;gradientColor=none;strokeColor=#232F3E;fillColor=#ffffff;dashed=0;verticalLabelPosition=bottom;verticalAlign=top;align=center;html=1;fontSize=12;fontStyle=0;aspect=fixed;shape=mxgraph.aws4.resourceIcon;resIcon=mxgraph.aws4.queue;" vertex="1" parent="1">
          <mxGeometry x="610" y="885" width="60" height="60" as="geometry" />
        </mxCell>
        <mxCell id="Kf7Oni3cejaSNOLy2I3y-60" value="" style="endArrow=none;dashed=1;html=1;dashPattern=1 3;strokeWidth=3;rounded=0;exitX=1.014;exitY=0.6;exitDx=0;exitDy=0;exitPerimeter=0;fillColor=#e51400;strokeColor=#B20000;" edge="1" parent="1" source="Kf7Oni3cejaSNOLy2I3y-54" target="Kf7Oni3cejaSNOLy2I3y-59">
          <mxGeometry width="50" height="50" relative="1" as="geometry">
            <mxPoint x="390" y="710" as="sourcePoint" />
            <mxPoint x="440" y="660" as="targetPoint" />
          </mxGeometry>
        </mxCell>
        <mxCell id="Kf7Oni3cejaSNOLy2I3y-61" value="" style="endArrow=none;dashed=1;html=1;dashPattern=1 3;strokeWidth=3;rounded=0;exitX=0.486;exitY=1;exitDx=0;exitDy=0;exitPerimeter=0;fillColor=#e51400;strokeColor=#B20000;" edge="1" parent="1" source="Kf7Oni3cejaSNOLy2I3y-54">
          <mxGeometry width="50" height="50" relative="1" as="geometry">
            <mxPoint x="390" y="710" as="sourcePoint" />
            <mxPoint x="360" y="1080" as="targetPoint" />
          </mxGeometry>
        </mxCell>
        <mxCell id="Kf7Oni3cejaSNOLy2I3y-62" value="&lt;b&gt;Drop it on the floor&lt;/b&gt;" style="text;html=1;align=center;verticalAlign=middle;resizable=0;points=[];autosize=1;strokeColor=none;fillColor=none;" vertex="1" parent="1">
          <mxGeometry x="300" y="1080" width="130" height="30" as="geometry" />
        </mxCell>
        <mxCell id="Kf7Oni3cejaSNOLy2I3y-64" value="&lt;b&gt;Retrieve rules periodically&lt;br&gt;new rules or modified rules&lt;/b&gt;" style="shape=callout;whiteSpace=wrap;html=1;perimeter=calloutPerimeter;" vertex="1" parent="1">
          <mxGeometry x="590" y="482" width="160" height="118" as="geometry" />
        </mxCell>
      </root>
    </mxGraphModel>
  </diagram>
</mxfile>
